<svg width="512" height="512" viewBox="0 0 512 512" fill="none" xmlns="http://www.w3.org/2000/svg">
  <defs>
    <linearGradient id="bg" x1="86" y1="72" x2="438" y2="444" gradientUnits="userSpaceOnUse">
      <stop stop-color="#A855F7"/>
      <stop offset="0.52" stop-color="#7C3AED"/>
      <stop offset="1" stop-color="#3B82F6"/>
    </linearGradient>
    <linearGradient id="glass" x1="152" y1="126" x2="382" y2="392" gradientUnits="userSpaceOnUse">
      <stop stop-color="white" stop-opacity="0.72"/>
      <stop offset="1" stop-color="white" stop-opacity="0.16"/>
    </linearGradient>
    <filter id="shadow" x="34" y="42" width="444" height="444" filterUnits="userSpaceOnUse" color-interpolation-filters="sRGB">
      <feDropShadow dx="0" dy="26" stdDeviation="24" flood-color="#4C1D95" flood-opacity="0.3"/>
    </filter>
    <filter id="softGlow" x="80" y="76" width="352" height="352" filterUnits="userSpaceOnUse" color-interpolation-filters="sRGB">
      <feGaussianBlur stdDeviation="20"/>
    </filter>
  </defs>
  <rect x="56" y="56" width="400" height="400" rx="118" fill="url(#bg)" filter="url(#shadow)"/>
  <path d="M102 160C120 110 176 86 230 94C296 104 324 68 386 96C420 112 438 150 438 194C438 298 336 436 204 420C118 410 70 250 102 160Z" fill="white" opacity="0.13" filter="url(#softGlow)"/>
  <g transform="rotate(-8 256 256)">
    <rect x="152" y="126" width="208" height="260" rx="48" fill="url(#glass)" stroke="white" stroke-opacity="0.42" stroke-width="5"/>
    <rect x="180" y="158" width="152" height="196" rx="32" fill="#111827" fill-opacity="0.18" stroke="white" stroke-opacity="0.28" stroke-width="3"/>
    <path d="M230 228L202 256L230 284" stroke="white" stroke-width="18" stroke-linecap="round" stroke-linejoin="round"/>
    <path d="M282 228L310 256L282 284" stroke="white" stroke-width="18" stroke-linecap="round" stroke-linejoin="round"/>
    <path d="M266 218L246 294" stroke="white" stroke-width="16" stroke-linecap="round"/>
  </g>
  <circle cx="363" cy="156" r="9" fill="white" fill-opacity="0.8"/>
  <circle cx="383" cy="182" r="5" fill="white" fill-opacity="0.56"/>
  <path d="M132 372H202" stroke="white" stroke-opacity="0.34" stroke-width="12" stroke-linecap="round"/>
</svg>
